<svg id="Layer_1" data-name="Layer 1" xmlns="http://www.w3.org/2000/svg" viewBox="0 0 698.15 205.6"><defs><style>.cls-1{fill:#de1a66;}.cls-2,.cls-3{fill:#15355c;}.cls-3{font-size:120px;letter-spacing:-0.05em;}.cls-3,.cls-4{font-family:AvenirNext-MediumItalic, Avenir Next;font-weight:500;font-style:italic;}.cls-4{font-size:79.85px;fill:#e51a69;}</style></defs><path class="cls-1" d="M521.74,379.91c0-6.11-.07-11.43,0-16.75a31.49,31.49,0,0,1,.76-6.86c1.06-4.35,5.32-7.37,9.29-6.89a9.22,9.22,0,0,1,8.21,8.72c.18,3.47.06,6.95.06,10.42q0,31.05,0,62.09c0,6.51-1.69,9.88-6,11.32-4.85,1.63-8.39-.5-11.22-4.32-.24-.31-.73-.44-1.09-.65-17,16-42.33,2-45.3-21.14-1.68-13.14.91-25.14,11.35-34.3,8.94-7.84,20.3-8.9,30.58-3.23C519.21,378.73,520,379.06,521.74,379.91Zm-.08,29.81c0-1.3.09-2.61,0-3.9-.57-7.34-6-13.07-12.82-13.63-6.11-.5-11.85,4.06-13.84,10.92a21,21,0,0,0,1.71,16.35,12.5,12.5,0,0,0,14.24,6.4C517.9,424.28,521.68,418.61,521.66,409.72Z" transform="translate(-346.53 -341.77)"/><path class="cls-1" d="M587.6,414.87c-5.35,0-10.7-.06-16.05,0-4.66.07-5.52,1.54-3.09,5.52,3.67,6,9.74,6.93,15.94,6.5,3.51-.24,7-1.68,10.37-2.75,1.64-.51,3.13-1.48,4.75-2.11,3.71-1.45,7.27-1.3,9.68,2.22s1.78,6.95-.88,10a19.19,19.19,0,0,1-5,4.11,43.65,43.65,0,0,1-31.07,4.34c-13.74-3-21.32-12.4-24.16-25.93-3.79-18,6.65-35.89,23.9-40.76a31.17,31.17,0,0,1,39.34,33.22c-.39,3.67-2.44,5.45-6,5.5-5.93.08-11.86,0-17.79,0Zm5-11.86c.39-6.31-4.68-12.1-10.51-12.69-6.83-.69-14.16,4.25-14.64,10.09-.07.8,1.23,2.47,1.93,2.48C577.17,403.07,584.93,403,592.64,403Z" transform="translate(-346.53 -341.77)"/><path class="cls-1" d="M467.16,395.87c0,12.15,0,24.29,0,36.44,0,6.33-3.34,10.08-8.75,10.14-5.57.07-9-3.48-9-9.84q-.11-36.64,0-73.31c0-5.8,3.72-9.8,8.72-9.92s9,4.15,9,10.05C467.21,371.58,467.16,383.72,467.16,395.87Z" transform="translate(-346.53 -341.77)"/><path class="cls-1" d="M420,409.43c0-7.52,0-15,0-22.55.05-6.74,3.55-10.69,9.28-10.65s9.06,4,9.07,10.83q0,22.54,0,45.09c0,6-3.37,9.93-8.37,10.29-5.71.41-9.85-3.64-9.95-10C419.92,424.75,420,417.09,420,409.43Z" transform="translate(-346.53 -341.77)"/><path class="cls-1" d="M378.68,444.11a75.91,75.91,0,0,0,9.43-1.34c16.81-4.16,25.18-23.35,22.9-37.73-.91-5.73-3.06-11.27-4.7-17.09,4.79-2.74,8.77-6.4,7.3-12.95a10.32,10.32,0,0,0-8.81-8.41c-7.64-1-11.39,3.38-13.4,10.15-15.47-4.29-29.3-2.19-38.19,11.76-10.56,16.58-8.23,32.94,4.42,47.93a14.22,14.22,0,0,1-1.17,1.47c-11.82,11.09-11.82,27.82.4,38.42,9.38,8.13,20.4,9.54,32.13,6.19,7.49-2.15,13.8-6.17,17.6-13.13a23.07,23.07,0,0,0,2.34-8.62c.41-4.14-2.16-6.77-5.76-8.29s-6.79-.33-9.36,2.47-4.81,6.24-7.8,8.61a11.87,11.87,0,0,1-13.83.28,11.63,11.63,0,0,1-4.13-12.39C369.14,447.23,372.66,444.83,378.68,444.11ZM364.6,409.7c0-9.67,6.27-17.5,14-17.5s14,7.83,14,17.5-6.27,17.5-14,17.5S364.6,419.36,364.6,409.7Z" transform="translate(-346.53 -341.77)"/><path class="cls-2" d="M631.16,364.72H653.6c22.32,0,38,11,38,38.64s-15.72,39.36-36.84,39.36H631.16Zm21.36,61.44c10,0,18-4.56,18-22.8s-8-22.08-18-22.08h-.72v44.88Z" transform="translate(-346.53 -341.77)"/><path class="cls-2" d="M698.48,412.72c0-19.68,15.36-31.44,31.44-31.44,19,0,28.56,13,28.56,29a54.28,54.28,0,0,1-.84,8.64H714.08V405.52h29.28l-2.88,3.6c0-7.92-3.12-12.24-9.84-12.24-7.92,0-12.24,5-12.24,15.84,0,11.28,5.52,15.84,16.56,15.84,4.8,0,9.12-1.2,14.4-3.6l6.72,12.24a47.6,47.6,0,0,1-24,7C713.12,444.16,698.48,432.64,698.48,412.72Z" transform="translate(-346.53 -341.77)"/><path class="cls-2" d="M764.36,382.72H785l7.8,26.16c1.8,6,3.24,12.24,4.92,18.72h.48c1.68-6.48,3.12-12.72,4.92-18.72l7.8-26.16H830.6l-20.88,60H786Z" transform="translate(-346.53 -341.77)"/><text class="cls-3" transform="translate(484.31 102.48)">Ops</text><text class="cls-4" transform="translate(111.68 171.5)">Solutions</text></svg>